<?xml version="1.0" encoding="utf-8"?><!-- Uploaded to: SVG Repo, www.svgrepo.com, Generator: SVG Repo Mixer Tools -->
<svg width="800px" height="800px" viewBox="0 0 64 64" xmlns="http://www.w3.org/2000/svg" xmlns:xlink="http://www.w3.org/1999/xlink" aria-hidden="true" role="img" class="iconify iconify--emojione-monotone" preserveAspectRatio="xMidYMid meet"><path d="M32 2C15.432 2 2 15.432 2 32c0 16.568 13.432 30 30 30s30-13.432 30-30C62 15.432 48.568 2 32 2zm6.975 42.795C37.308 46.932 34.983 48 32 48c-2.997 0-5.414-1.172-7.248-3.516C22.918 42.139 22 37.961 22 31.948c0-5.9 1.009-10.146 3.025-12.74C26.692 17.071 29.017 16 32 16s5.315 1.082 6.996 3.25C40.999 21.815 42 26.069 42 32.012c0 5.927-1.009 10.189-3.025 12.783z" fill="#000000"></path></svg>